<svg id="Layer_1" enable-background="new 0 0 512.002 512.002" height="512" viewBox="0 0 512.002 512.002" width="512" xmlns="http://www.w3.org/2000/svg"><path d="m369.152 327.341c57.884-215.994 54.21-200.418 54.21-206.6 0-9.336-4.035-18.072-10.27-23.93-15.703-14.964-41.257-10.927-51.69 7.85v-59.46c0-20.528-16.619-37.2-37.2-37.2-20.54 0-37.2 16.66-37.2 37.2v110.87l-62.04-102.6c-6.89-11.94-19.4-18.61-32.25-18.61-28.367 0-46.555 30.895-32.18 55.81l54.53 90.93h-72.73c-20.538 0-37.2 16.661-37.2 37.2 0 4.542.561 4.13 0 4.13-9.09 0-16.53 7.44-16.53 16.54v148.8c0 63.91 51.82 115.73 115.73 115.73h41.34c0-.866 36.269 2.457 67.99-29.23 65.839-65.866 55.089-146.092 55.49-147.43zm-114.51 26.511c-7.096 23.805-36.429 32.191-55.02 15.92-23.27-20.37-36.62-49.78-36.62-80.7 0-10.64.591-20.093-5.57-33.07h71.39l9.15 8.34c11.085 10.102 18.039 24.746 18.06 40.89.011 42.233.475 42.344-1.39 48.62z" fill="#8bc4ff"/><g fill="#2e58ff"><path d="m431.362 120.738c0-31.376-34.396-51.619-61.959-35.354v-40.182c0-12.066-4.698-23.417-13.238-31.97-28.241-28.197-77.162-8.431-77.162 31.97v82.176l-47.156-77.983c-12.323-21.246-39.819-29.095-61.704-16.474-22.291 12.868-28.762 41.465-16.471 61.862l47.265 78.818h-58.605c-24.207 0-43.816 18.937-45.129 42.646-9.646 3.306-16.601 12.468-16.601 23.225v148.8c0 68.226 55.505 123.73 123.73 123.73h41.34c24.686 0 52.923-10.871 73.646-31.573 4.938-4.937 9.661-10.189 14.039-15.611 2.775-3.438 2.238-8.475-1.2-11.25-3.438-2.776-8.475-2.238-11.25 1.199-38.383 47.548-70.514 41.235-116.575 41.235-59.402 0-107.73-48.328-107.73-107.73v-148.8c0-4.709 3.827-8.54 8.53-8.54.732 0 1.369-.032 2.306-.282 1.691.631 29.466 1.052 42.766 28.778 5.463 11.526 4.799 20.121 4.799 29.641 0 33.227 14.344 64.836 39.351 86.722 22.918 20.072 59.172 9.799 67.955-19.664 2.318-7.804 1.737-9.276 1.726-50.907-.024-17.873-7.541-34.837-20.673-46.789-9.699-8.844-10.52-10.34-14.346-10.418-.658-.015-8.895-.01-66.778-.01-10.618-18.513-29.078-30.071-48.908-32.546 1.663-14.629 14.087-25.854 29.004-25.854h78.78c24.36 0 47.265 9.488 64.493 26.718l63.746 63.745c5.757 9.968 4.483 7.158 5.742 11.756 9.796 36.031 8.159 73.137-3.196 106.579-1.42 4.185.82 8.728 5.003 10.147 4.183 1.422 8.727-.819 10.147-5.003 8.096-23.849 11.636-49.31 10.125-75.233 57.562-214.774 54.188-199.875 54.188-207.574zm-187.369 165.372c5.36 12.138 4.041 18.903 4.051 58.056 0 22.16-26.277 34.365-43.151 19.585-21.538-18.849-33.89-46.069-33.89-74.683 0-9.315.346-15.479-2.184-25.066h56.908c7.911 7.214 13.622 11.601 18.266 22.108zm80.21-270.108c16.026 0 29.2 12.943 29.2 29.2v209.886c-17.645-30.553-18.762-32.496-18.703-32.389-.092-.168 1.818 3.144-39.697-68.773v-108.724c0-16.101 13.099-29.2 29.2-29.2zm-104.61 157.599-52.163-86.986c-11.222-19.536 3.077-43.757 25.281-43.757 9.807 0 19.374 4.805 25.405 14.75 74.41 123.055 52.071 85.331 100.318 168.912l-21.515-21.515c-19.821-19.822-46.064-31.404-77.326-31.404zm194.905-46.357c-48.376 180.493-43.25 163.012-43.969 160.365-1.609-5.877-1.126 15.476-1.126-180.708 15.411-23.326 52.474-7.273 45.095 20.343z"/><path d="m350.508 423.218c-3.902-2.076-8.745-.593-10.819 3.308-.555 1.043-1.128 2.087-1.711 3.111-3.042 5.35.865 11.955 6.947 11.955 5.339 0 7.1-4.186 8.891-7.555 2.074-3.901.593-8.744-3.308-10.819z"/></g></svg>